<?xml version="1.0" encoding="utf-8"?>
<!-- Generator: Adobe Illustrator 16.0.4, SVG Export Plug-In . SVG Version: 6.00 Build 0)  -->
<!DOCTYPE svg PUBLIC "-//W3C//DTD SVG 1.1//EN" "http://www.w3.org/Graphics/SVG/1.1/DTD/svg11.dtd">
<svg version="1.1" id="Layer_1" xmlns="http://www.w3.org/2000/svg" xmlns:xlink="http://www.w3.org/1999/xlink" x="0px" y="0px"
	 width="50px" height="50px" viewBox="0 0 50 50" enable-background="new 0 0 50 50" xml:space="preserve">
<path d="M8.837,25.516c-0.276,0-0.5-0.208-0.5-0.483V25c0-1.747,0.269-3.468,0.8-5.115c0.085-0.263,0.367-0.405,0.629-0.323
	c0.263,0.085,0.407,0.367,0.323,0.629C9.59,21.739,9.337,23.357,9.337,25C9.337,25.276,9.114,25.516,8.837,25.516z M29.854,39.896
	c-1.558,0.506-3.185,0.765-4.837,0.767c-0.276,0-0.5,0.226-0.5,0.5s0.224,0.5,0.5,0.5l0,0c1.757-0.002,3.49-0.276,5.146-0.815
	c0.263-0.084,0.406-0.367,0.32-0.63C30.398,39.956,30.115,39.811,29.854,39.896z M10.108,29.868c-0.085-0.263-0.364-0.406-0.63-0.32
	c-0.262,0.085-0.406,0.368-0.32,0.63c0.542,1.66,1.341,3.221,2.376,4.639c0.098,0.134,0.25,0.205,0.404,0.205
	c0.102,0,0.206-0.031,0.294-0.097c0.223-0.163,0.272-0.476,0.109-0.698C11.37,32.895,10.618,31.428,10.108,29.868z M29.794,10.084
	c1.563,0.502,3.033,1.246,4.37,2.212c0.089,0.064,0.191,0.095,0.292,0.095c0.155,0,0.308-0.072,0.405-0.207
	c0.162-0.224,0.111-0.537-0.111-0.698c-1.422-1.028-2.986-1.82-4.65-2.354c-0.263-0.083-0.543,0.061-0.629,0.323
	C29.387,9.718,29.531,10,29.794,10.084z M11.9,16.03c0.155,0,0.308-0.072,0.405-0.207c0.965-1.333,2.127-2.501,3.456-3.473
	c0.223-0.163,0.271-0.476,0.108-0.699c-0.162-0.223-0.475-0.271-0.699-0.108c-1.413,1.033-2.649,2.276-3.675,3.693
	c-0.162,0.224-0.112,0.536,0.112,0.698C11.696,16,11.799,16.03,11.9,16.03z M19.962,10.138c0.051,0,0.104-0.008,0.156-0.025
	c1.556-0.51,3.183-0.771,4.835-0.775c0.276-0.001,0.5-0.225,0.499-0.501c-0.001-0.275-0.225-0.499-0.5-0.499h-0.001
	c-1.757,0.005-3.488,0.283-5.144,0.825c-0.262,0.086-0.405,0.368-0.319,0.631C19.556,10.004,19.751,10.138,19.962,10.138z
	 M20.176,39.906c-1.562-0.506-3.031-1.252-4.366-2.221c-0.223-0.164-0.537-0.112-0.698,0.11C14.95,38.02,15,38.332,15.223,38.494
	c1.42,1.029,2.983,1.824,4.645,2.361c0.051,0.018,0.103,0.024,0.154,0.024c0.211,0,0.407-0.135,0.476-0.346
	C20.583,40.273,20.439,39.991,20.176,39.906z M37.676,34.202c-0.968,1.33-2.133,2.496-3.463,3.465
	c-0.223,0.163-0.271,0.476-0.109,0.699c0.098,0.134,0.25,0.206,0.404,0.206c0.102,0,0.205-0.031,0.294-0.096
	c1.415-1.031,2.653-2.271,3.683-3.687c0.164-0.224,0.113-0.536-0.109-0.698C38.15,33.928,37.838,33.979,37.676,34.202z
	 M41.163,24.468c-0.276,0-0.5,0.255-0.5,0.532c0,1.652-0.256,3.281-0.763,4.839c-0.084,0.263,0.06,0.544,0.322,0.63
	c0.051,0.018,0.103,0.024,0.153,0.024c0.211,0,0.407-0.134,0.476-0.347c0.539-1.656,0.812-3.389,0.812-5.146v-0.064
	C41.663,24.66,41.439,24.468,41.163,24.468z M39.882,20.103c0.069,0.21,0.265,0.344,0.476,0.344c0.052,0,0.104-0.008,0.156-0.025
	c0.262-0.086,0.404-0.369,0.318-0.631c-0.546-1.66-1.35-3.219-2.387-4.633c-0.164-0.223-0.477-0.271-0.698-0.107
	s-0.271,0.476-0.106,0.699C38.615,17.078,39.369,18.543,39.882,20.103z M45,25c0,11.027-8.973,20-20,20C13.972,45,5,36.027,5,25
	C5,13.972,13.972,5,25,5C36.027,5,45,13.972,45,25z M43,25c0-9.925-8.075-18-18-18S7,15.075,7,25s8.075,18,18,18S43,34.925,43,25z
	 M26.686,25.818c-0.334-0.127-0.844-0.191-1.529-0.191h-1.563v2.614c0.006,0.37,0.02,0.586,0.043,0.649
	c0.029,0.08,0.076,0.137,0.143,0.168c0.066,0.031,0.246,0.049,0.539,0.049H25.2c0.512,0,0.937-0.049,1.272-0.145
	c0.338-0.094,0.625-0.292,0.86-0.593c0.235-0.3,0.354-0.66,0.354-1.082c0-0.358-0.084-0.66-0.25-0.91
	C27.27,26.133,27.02,25.945,26.686,25.818z M39.436,25c0,7.973-6.463,14.436-14.436,14.436c-7.972,0-14.435-6.463-14.435-14.436
	c0-7.972,6.463-14.435,14.435-14.435C32.973,10.565,39.436,17.028,39.436,25z M30.822,27.609c0-0.536-0.127-1.021-0.381-1.457
	c-0.254-0.438-0.599-0.775-1.029-1.019c-0.301-0.174-0.732-0.333-1.298-0.476c0.526-0.179,0.95-0.405,1.271-0.68
	c0.321-0.274,0.567-0.59,0.738-0.947c0.17-0.358,0.255-0.736,0.255-1.134c0-0.548-0.161-1.052-0.482-1.511
	c-0.324-0.458-0.785-0.811-1.385-1.055c-0.234-0.095-0.511-0.167-0.81-0.225v-2.131h-2.045v1.987h-1.314v-1.987h-2.045v1.987h-3.119
	v1.67h0.477c0.317,0,0.532,0.03,0.645,0.087c0.113,0.057,0.192,0.136,0.238,0.233c0.047,0.098,0.07,0.327,0.07,0.684v6.734
	c0,0.353-0.022,0.579-0.07,0.68c-0.046,0.101-0.125,0.179-0.238,0.233c-0.113,0.055-0.327,0.083-0.645,0.083h-0.477v1.67h3.119
	v1.987h2.045v-1.987h1.163c0.053,0,0.102-0.001,0.152-0.001v1.988h2.045v-2.159c0.343-0.066,0.645-0.149,0.902-0.253
	c0.705-0.282,1.25-0.692,1.638-1.232C30.628,28.841,30.822,28.25,30.822,27.609z M26.454,23.679c0.333-0.115,0.581-0.29,0.749-0.521
	c0.167-0.233,0.25-0.504,0.25-0.81c0-0.317-0.079-0.588-0.237-0.813c-0.159-0.225-0.39-0.385-0.688-0.48
	c-0.301-0.096-0.838-0.144-1.61-0.144h-1.324v2.943h1.324C25.611,23.853,26.122,23.795,26.454,23.679z"/>
</svg>
