<svg xmlns="http://www.w3.org/2000/svg" version="1.1" width="655" height="300" xmlns:xlink="http://www.w3.org/1999/xlink"><g transform="translate(177.5 -0.0000019073486328125)"><g width="180" height="180" transform="translate(60.000633239746094 60.00000190734863)" fill="#ff3779"><g width="140.867px" height="48.508px" transform="translate(0 59.00821342117032)"><path d="M138.658,18.927L121.951,2.221c-1.182-1.182-2.688-1.916-4.359-2.128c-0.076-0.013-0.15-0.021-0.229-0.028
	c-0.469-0.045-0.932-0.049-1.379-0.012h-4.112C111.549,0.018,111.247,0,110.951,0l-16.53,0.001H5.104C2.286,0.001,0,2.286,0,5.104
	v38.3c0.001,2.818,2.285,5.104,5.103,5.104H110.95c0.155,0,0.312-0.01,0.495-0.025l5.224,0.002c0.138,0.004,0.271,0.004,0.399-0.002
	l0.078,0.002c0.274-0.002,0.543-0.039,0.799-0.11c1.529-0.267,2.904-0.978,4.002-2.071l16.707-16.707
	c1.427-1.425,2.209-3.318,2.212-5.333C140.865,22.245,140.082,20.352,138.658,18.927z M130.943,27.805
	c-1.959,0-3.545-1.586-3.545-3.542c0-1.957,1.586-3.544,3.545-3.544c1.955,0,3.543,1.588,3.543,3.544
	C134.486,26.221,132.9,27.805,130.943,27.805z" xmlns="http://www.w3.org/2000/svg" transform="scale(1.2778010463770793 1.2778010463770793)"></path></g><g width="140.3990121459961" height="34.09096355438233" transform="translate(10.07076057227883 72.95451705520217)"><g transform="translate(-1.8142640304565418 30.772446727752687)" fill="#ffffff"><path d="M262 1195Q262 1243 315 1270L594 1415Q623 1429 651 1430H694Q735 1430 764 1401T793 1331V174H995Q1032 174 1057.5 148.5T1083 86T1057.5 24.5T995 0H362Q325 0 300.5 24.5T276 86T301 148.5T362 174H606V1212L397 1110L377 1102T339 1098T286.5 1122.5T262 1195Z " transform="scale(0.019198552187337084 -0.019198552187337084)"></path><path d="M199 82V1335Q199 1374 225.5 1402T291 1430H768Q1049 1430 1192 1311Q1325 1198 1325 1014Q1325 895 1258.5 792.5T1057 643Q1204 604 1270 430Q1313 313 1313 176V82Q1313 43 1286.5 16.5T1219 -10T1152 15.5T1126 82V143Q1126 309 1089.5 387T989.5 511T809 557H385V82Q385 43 357.5 16.5T291 -10T225.5 16.5T199 82ZM385 733H756Q928 733 1033.5 800.5T1139 999Q1139 1122 1057 1184Q960 1253 751 1253H745H385V733Z " transform="scale(0.019198552187337084 -0.019198552187337084) translate(1286 0)"></path><path d="M113 715Q117 1039 311 1243Q505 1450 831 1450Q1155 1450 1352 1243Q1542 1040 1550 715Q1542 389 1352 186Q1156 -20 834 -20H831Q505 -20 311 186Q116 391 113 715ZM299 715Q299 471 438 315Q581 154 831 154T1225 315Q1364 471 1364 715T1225 1114Q1082 1276 831 1276Q581 1276 438 1114Q299 958 299 715Z " transform="scale(0.019198552187337084 -0.019198552187337084) translate(2743.9999999999995 0)"></path><path d="M113 715Q117 1039 311 1243Q505 1450 831 1450Q1155 1450 1352 1243Q1542 1040 1550 715Q1542 389 1352 186Q1156 -20 834 -20H831Q505 -20 311 186Q116 391 113 715ZM299 715Q299 471 438 315Q581 154 831 154T1225 315Q1364 471 1364 715T1225 1114Q1082 1276 831 1276Q581 1276 438 1114Q299 958 299 715Z " transform="scale(0.019198552187337084 -0.019198552187337084) translate(4404 0)"></path><path d="M199 82V1335Q199 1374 225.5 1402T291 1430H1087Q1124 1430 1150 1404T1176 1341T1150 1279.5T1087 1255H385V803H1016Q1053 803 1078.5 777.5T1104 715T1078.5 653.5T1016 629H385V82Q385 43 357.5 16.5T291 -10T225.5 16.5T199 82Z " transform="scale(0.019198552187337084 -0.019198552187337084) translate(6064 0)"></path></g></g></g></g><defs></defs></svg>